<!DOCTYPE svg PUBLIC "-//W3C//DTD SVG 1.1//EN" "http://www.w3.org/Graphics/SVG/1.1/DTD/svg11.dtd">
<!-- Uploaded to: SVG Repo, www.svgrepo.com, Transformed by: SVG Repo Mixer Tools -->
<svg fill="#ffffff" height="800px" width="800px" version="1.1" id="Layer_1" xmlns="http://www.w3.org/2000/svg" xmlns:xlink="http://www.w3.org/1999/xlink" viewBox="0 0 512 512" xml:space="preserve" stroke="#ffffff">
<g id="SVGRepo_bgCarrier" stroke-width="0"/>
<g id="SVGRepo_tracerCarrier" stroke-linecap="round" stroke-linejoin="round"/>
<g id="SVGRepo_iconCarrier"> <g> <g> <path d="M448,109.693V21.33c0-7.765-4.203-14.891-11.008-18.645c-6.741-3.776-15.061-3.541-21.632,0.555L249.877,106.664H85.333 c-11.797,0-21.333,9.557-21.333,21.333v42.667H21.333C9.536,170.664,0,180.221,0,191.997s9.536,21.333,21.333,21.333H64v42.667 c0,11.776,9.536,21.333,21.333,21.333h21.333v170.667c0,35.285,28.715,64,64,64s64-28.715,64-64V277.33h15.211L415.36,380.754 c3.456,2.155,7.36,3.243,11.307,3.243c3.563,0,7.125-0.875,10.325-2.667c6.805-3.776,11.008-10.901,11.008-18.667v-88.363 c36.693-9.536,64-42.645,64-82.304C512,152.36,484.693,119.229,448,109.693z M192,447.997c0,11.755-9.557,21.333-21.333,21.333 s-21.333-9.579-21.333-21.333V277.33H192V447.997z M405.333,127.997v128v68.181l-128-80V139.816l128-80V127.997z"/> </g> </g> </g>
</svg>