<!DOCTYPE svg PUBLIC "-//W3C//DTD SVG 1.1//EN" "http://www.w3.org/Graphics/SVG/1.1/DTD/svg11.dtd">
<!-- Uploaded to: SVG Repo, www.svgrepo.com, Transformed by: SVG Repo Mixer Tools -->
<svg fill="#ffffff" version="1.1" id="Capa_1" xmlns="http://www.w3.org/2000/svg" xmlns:xlink="http://www.w3.org/1999/xlink" width="800px" height="800px" viewBox="0 0 45 45" xml:space="preserve" stroke="#ffffff">
<g id="SVGRepo_bgCarrier" stroke-width="0"/>
<g id="SVGRepo_tracerCarrier" stroke-linecap="round" stroke-linejoin="round"/>
<g id="SVGRepo_iconCarrier"> <g> <g> <path d="M7.427,42.306v1.611h8v-1.583h15.991v1.583h8V41.96C42.653,40.937,45,37.909,45,34.334H0 C0,38.56,3.277,42.01,7.427,42.306z"/> <path d="M37,8.417h-4.199c-1.486-4.263-5.537-7.334-10.3-7.334s-8.813,3.071-10.301,7.334H8c-4.418,0-8,3.582-8,8v14.917h17.292 v-5.25h10.417v5.25H45V16.417C45,11.999,41.418,8.417,37,8.417z M16.595,8.417c1.215-1.995,3.404-3.334,5.905-3.334 c2.502,0,4.69,1.339,5.905,3.334H16.595z"/> </g> </g> </g>
</svg>